<svg width="12" height="13" viewBox="0 0 12 13" fill="none" xmlns="http://www.w3.org/2000/svg">
<path d="M5.99961 6.5742C5.67786 6.5742 5.35611 6.50535 5.05686 6.3672L0.599609 4.3098V9.45645C0.599609 9.9537 1.00236 10.3564 1.49961 10.3564H10.4996C10.9969 10.3564 11.3996 9.9537 11.3996 9.45645V4.3098L6.94236 6.3672C6.64311 6.50535 6.32136 6.5742 5.99961 6.5742V6.5742ZM10.4996 1.35645H1.49961C1.00236 1.35645 0.599609 1.7592 0.599609 2.25645V3.31845L5.43396 5.54955C5.79351 5.71515 6.20616 5.7156 6.56571 5.54955L11.3996 3.31845V2.25645C11.3996 1.7592 10.9969 1.35645 10.4996 1.35645V1.35645Z" fill="white"/>
</svg>
