<svg width="13" height="13" viewBox="0 0 13 13" fill="none" xmlns="http://www.w3.org/2000/svg">
<path d="M7.71126 10.7154C7.5677 10.859 7.38826 10.9308 7.20881 10.9308C7.02936 10.9308 6.84992 10.859 6.70636 10.7154C6.41925 10.4283 6.41925 9.97971 6.70636 9.6926L9.5416 6.83942L1.71778 6.83942C1.323 6.83942 1 6.51642 1 6.12164C1 5.72686 1.323 5.40385 1.71778 5.40385L9.5416 5.40385L6.68842 2.55067C6.40131 2.26356 6.40131 1.81495 6.68842 1.52783C6.97553 1.24072 7.42414 1.24072 7.71126 1.52783L11.7847 5.61919C12.0718 5.9063 12.0718 6.35491 11.7847 6.64203L7.71126 10.7154Z" fill="white"/>
</svg>
