<svg width="67" height="57" viewBox="0 0 67 57" fill="none" xmlns="http://www.w3.org/2000/svg">
<path d="M15.8516 16.5547V19.1328C15.8516 19.9141 16.1875 20.3047 16.8594 20.3047H18.9922C19.1641 20.3047 19.3125 20.3672 19.4375 20.4922C19.5625 20.6172 19.625 20.7656 19.625 20.9375V24.0078C19.625 24.1797 19.5625 24.3281 19.4375 24.4531C19.3125 24.5781 19.1641 24.6406 18.9922 24.6406H16.3438C12.4375 24.6406 10.4844 22.9609 10.4844 19.6016V16.5547H8.63281C8.46094 16.5547 8.3125 16.4922 8.1875 16.3672C8.0625 16.2422 8 16.0938 8 15.9219V13.0859C8 12.9141 8.0625 12.7656 8.1875 12.6406C8.3125 12.5156 8.46094 12.4531 8.63281 12.4531H10.4844V8.63281C10.4844 8.46094 10.5469 8.3125 10.6719 8.1875C10.7969 8.0625 10.9453 8 11.1172 8H15.2188C15.3906 8 15.5391 8.0625 15.6641 8.1875C15.7891 8.3125 15.8516 8.46094 15.8516 8.63281V12.4531H18.8047C18.9766 12.4531 19.125 12.5156 19.25 12.6406C19.375 12.7656 19.4375 12.9141 19.4375 13.0859V15.9219C19.4375 16.0938 19.375 16.2422 19.25 16.3672C19.125 16.4922 18.9766 16.5547 18.8047 16.5547H15.8516Z" fill="#0040DD"/>
<path d="M20.9199 21.1484C20.9199 19.0391 22.6309 17.6875 26.0527 17.0938L28.5371 16.6953C28.5371 16.2266 28.498 15.9141 28.4199 15.7578C28.3418 15.5859 28.1543 15.5 27.8574 15.5C27.5762 15.5 27.2949 15.625 27.0137 15.875C26.7324 16.125 26.4668 16.25 26.2168 16.25H22.2324C21.8887 16.25 21.7168 16.0859 21.7168 15.7578C21.7168 15.4141 21.834 15.0547 22.0684 14.6797C22.3184 14.2891 22.6699 13.9062 23.123 13.5312C23.5918 13.1562 24.2402 12.8438 25.0684 12.5938C25.9121 12.3438 26.8496 12.2187 27.8809 12.2187C29.9746 12.2187 31.5449 12.6562 32.5918 13.5312C33.6387 14.4062 34.1621 15.6562 34.1621 17.2812V24.0078C34.1621 24.1797 34.0996 24.3281 33.9746 24.4531C33.8496 24.5781 33.7012 24.6406 33.5293 24.6406H29.4277C29.2559 24.6406 29.1074 24.5781 28.9824 24.4531C28.8574 24.3281 28.7949 24.1797 28.7949 24.0078V23.3516C28.0605 24.3672 26.9902 24.875 25.584 24.875C24.1777 24.875 23.0449 24.5234 22.1855 23.8203C21.3418 23.1016 20.9199 22.2109 20.9199 21.1484ZM27.084 21.4062C28.0996 21.4062 28.6074 20.7969 28.6074 19.5781L27.2246 19.8828C26.5371 20.0391 26.1934 20.3281 26.1934 20.75C26.1934 20.9375 26.2715 21.0937 26.4277 21.2187C26.584 21.3437 26.8027 21.4062 27.084 21.4062Z" fill="#0040DD"/>
<path d="M41.2058 24.6406H37.0105C36.8386 24.6406 36.6902 24.5781 36.5652 24.4531C36.4402 24.3281 36.3777 24.1797 36.3777 24.0078V8.63281C36.3777 8.46094 36.4402 8.3125 36.5652 8.1875C36.6902 8.0625 36.8386 8 37.0105 8H41.2058C41.3777 8 41.5261 8.0625 41.6511 8.1875C41.7761 8.3125 41.8386 8.46094 41.8386 8.63281V24.0078C41.8386 24.1797 41.7761 24.3281 41.6511 24.4531C41.5261 24.5781 41.3777 24.6406 41.2058 24.6406Z" fill="#0040DD"/>
<path d="M49.5497 8.63281V16.2266L51.6122 12.8516C51.7685 12.5859 51.9951 12.4531 52.2919 12.4531H57.0263C57.1826 12.4531 57.3154 12.5078 57.4247 12.6172C57.5341 12.7266 57.5888 12.8516 57.5888 12.9922C57.5888 13.1328 57.5497 13.2578 57.4716 13.3672L54.2607 17.9375L58.0576 23.7734C58.1201 23.8672 58.1513 23.9844 58.1513 24.125C58.1513 24.25 58.0966 24.3672 57.9872 24.4766C57.8779 24.5859 57.7451 24.6406 57.5888 24.6406H52.6669C52.3544 24.6406 52.1122 24.5078 51.9404 24.2422L49.5497 20.2578V24.0078C49.5497 24.1797 49.4872 24.3281 49.3622 24.4531C49.2372 24.5781 49.0888 24.6406 48.9169 24.6406H44.8154C44.6435 24.6406 44.4951 24.5781 44.3701 24.4531C44.2451 24.3281 44.1826 24.1797 44.1826 24.0078V8.63281C44.1826 8.46094 44.2451 8.3125 44.3701 8.1875C44.4951 8.0625 44.6435 8 44.8154 8H48.9169C49.0888 8 49.2372 8.0625 49.3622 8.1875C49.4872 8.3125 49.5497 8.46094 49.5497 8.63281Z" fill="#0040DD"/>
<path d="M16.0295 41.1406V47.4453C16.0295 47.6172 15.967 47.7656 15.842 47.8906C15.717 48.0156 15.5686 48.0781 15.3967 48.0781H10.8264C10.6545 48.0781 10.5061 48.0156 10.3811 47.8906C10.2561 47.7656 10.1936 47.6172 10.1936 47.4453V32.0703C10.1936 31.8984 10.2561 31.75 10.3811 31.625C10.5061 31.5 10.6545 31.4375 10.8264 31.4375H15.3967C15.5686 31.4375 15.717 31.5 15.842 31.625C15.967 31.75 16.0295 31.8984 16.0295 32.0703V37.1094C16.9202 36.1406 18.0608 35.6562 19.4514 35.6562C20.842 35.6562 21.9905 36.1094 22.8967 37.0156C23.803 37.9219 24.2561 39.2422 24.2561 40.9766V47.4219C24.2561 47.5938 24.1936 47.7422 24.0686 47.8672C23.9436 47.9922 23.7952 48.0547 23.6233 48.0547H19.0295C18.8577 48.0547 18.7092 47.9922 18.5842 47.8672C18.4592 47.7422 18.3967 47.5938 18.3967 47.4219V41.1406C18.3967 40.2812 17.9983 39.8516 17.2014 39.8516C16.4202 39.8516 16.0295 40.2812 16.0295 41.1406Z" fill="#0040DD"/>
<path d="M26.3728 42.9922V36.5234C26.3728 36.3516 26.4353 36.2031 26.5603 36.0781C26.6853 35.9531 26.8337 35.8906 27.0056 35.8906H31.4822C31.6541 35.8906 31.8025 35.9531 31.9275 36.0781C32.0525 36.2031 32.115 36.3516 32.115 36.5234V42.8281C32.115 43.6875 32.5056 44.1172 33.2869 44.1172C34.0681 44.1172 34.4587 43.6875 34.4587 42.8281V36.5234C34.4587 36.3516 34.5212 36.2031 34.6462 36.0781C34.7712 35.9531 34.9197 35.8906 35.0916 35.8906H39.5447C39.7166 35.8906 39.865 35.9531 39.99 36.0781C40.115 36.2031 40.1775 36.3516 40.1775 36.5234V47.4453C40.1775 47.6172 40.115 47.7656 39.99 47.8906C39.865 48.0156 39.7166 48.0781 39.5447 48.0781H35.4431C35.2712 48.0781 35.1228 48.0156 34.9978 47.8906C34.8728 47.7656 34.8103 47.6172 34.8103 47.4453V46.6719C34.0759 47.7656 32.7791 48.3125 30.9197 48.3125C29.6384 48.3125 28.5603 47.8672 27.6853 46.9766C26.8103 46.0703 26.3728 44.7422 26.3728 42.9922Z" fill="#0040DD"/>
<path d="M56.1992 41.0469V42.8984C56.1992 44.7422 55.7383 46.1094 54.8164 47C53.8945 47.875 52.6914 48.3125 51.207 48.3125C49.7227 48.3125 48.5742 47.7891 47.7617 46.7422V47.4453C47.7617 47.6172 47.6992 47.7656 47.5742 47.8906C47.4492 48.0156 47.3008 48.0781 47.1289 48.0781H43.1445C42.9727 48.0781 42.8242 48.0156 42.6992 47.8906C42.5742 47.7656 42.5117 47.6172 42.5117 47.4453V32.0703C42.5117 31.8984 42.5742 31.75 42.6992 31.625C42.8242 31.5 42.9727 31.4375 43.1445 31.4375H47.4805C47.6523 31.4375 47.8008 31.5 47.9258 31.625C48.0508 31.75 48.1133 31.8984 48.1133 32.0703V36.7578C48.9258 36.0234 50.0039 35.6562 51.3477 35.6562C52.707 35.6562 53.8555 36.1172 54.793 37.0391C55.7305 37.9609 56.1992 39.2969 56.1992 41.0469ZM48.1133 42.7578C48.1133 43.6641 48.5039 44.1172 49.2852 44.1172C50.0664 44.1172 50.457 43.6641 50.457 42.7578V41.2109C50.457 40.3047 50.0664 39.8516 49.2852 39.8516C48.5508 39.8516 48.1602 40.2422 48.1133 41.0234V42.7578Z" fill="#0040DD"/>
</svg>
