<svg width="114" height="101" viewBox="0 0 114 101" fill="none" xmlns="http://www.w3.org/2000/svg">
<circle cx="96" cy="95.5" r="95.5" fill="#438EFF"/>
<path d="M65.7264 35.0507C65.7264 34.5707 65.8704 34.1867 66.1584 33.8987C66.4464 33.6107 66.8304 33.4667 67.3104 33.4667L70.7664 33.4667C71.2464 33.4667 71.6304 33.6107 71.9184 33.8987C72.2544 34.1867 72.4224 34.5707 72.4224 35.0507L72.4224 38.5067C72.4224 38.9867 72.2544 39.3707 71.9184 39.6587C71.6304 39.9947 71.2464 40.1627 70.7664 40.1627L67.3104 40.1627C66.8304 40.1627 66.4464 39.9947 66.1584 39.6587C65.8704 39.3707 65.7264 38.9867 65.7264 38.5067L65.7264 35.0507ZM40.5264 35.0507C40.5264 34.5707 40.6704 34.1867 40.9584 33.8987C41.2464 33.6107 41.6304 33.4667 42.1104 33.4667L45.5664 33.4667C46.0464 33.4667 46.4304 33.6107 46.7184 33.8987C47.0544 34.1867 47.2224 34.5707 47.2224 35.0507L47.2224 38.5067C47.2224 38.9867 47.0544 39.3707 46.7184 39.6587C46.4304 39.9947 46.0464 40.1627 45.5664 40.1627L42.1104 40.1627C41.6304 40.1627 41.2464 39.9947 40.9584 39.6587C40.6704 39.3707 40.5264 38.9867 40.5264 38.5067L40.5264 35.0507ZM29.0784 48.8899C29.0784 48.4579 29.2464 48.0739 29.5824 47.7379C29.8704 47.4499 30.2304 47.3059 30.6624 47.3059L31.6704 47.3059C32.1024 47.3059 32.4864 47.4499 32.8224 47.7379C33.1104 48.0259 33.2544 48.3379 33.2544 48.6739C33.2544 50.6899 33.7344 52.3939 34.6944 53.7859C35.6544 55.1779 37.2624 56.3059 39.5184 57.1699C41.7264 58.0339 44.7264 58.6579 48.5184 59.0419C52.3104 59.4259 57.0624 59.6179 62.7744 59.6179C68.4864 59.6179 73.2384 59.4259 77.0304 59.0419C80.8224 58.6579 83.8224 58.0339 86.0304 57.1699C88.2864 56.3059 89.8704 55.1779 90.7824 53.7859C91.7424 52.3939 92.2224 50.6899 92.2224 48.6739C92.2224 48.3379 92.3664 48.0259 92.6544 47.7379C92.9904 47.4499 93.3744 47.3059 93.8064 47.3059L94.8144 47.3059C95.2464 47.3059 95.6064 47.4499 95.8944 47.7379C96.2304 48.0739 96.3984 48.4579 96.3984 48.8899C96.3984 51.9139 95.7264 54.4099 94.3824 56.3779C93.0864 58.3459 91.0704 59.8579 88.3344 60.9139C85.5984 62.0179 82.0944 62.7859 77.8224 63.2179C73.5984 63.6499 68.5824 63.8659 62.7744 63.8659C56.9664 63.8659 51.9264 63.6499 47.6544 63.2179C43.4304 62.7859 39.9504 62.0179 37.2144 60.9139C34.4784 59.8579 32.4384 58.3459 31.0944 56.3779C29.7504 54.4099 29.0784 51.9139 29.0784 48.8899Z" fill="white"/>
</svg>
