<svg width="152" height="133" viewBox="0 0 152 133" fill="none" xmlns="http://www.w3.org/2000/svg">
<circle cx="56" cy="95.5" r="95.5" fill="#438EFF"/>
<path d="M86.2736 35.0507C86.2736 34.5707 86.1296 34.1867 85.8416 33.8987C85.5536 33.6107 85.1696 33.4667 84.6896 33.4667L81.2336 33.4667C80.7536 33.4667 80.3696 33.6107 80.0816 33.8987C79.7456 34.1867 79.5776 34.5707 79.5776 35.0507L79.5776 38.5067C79.5776 38.9867 79.7456 39.3707 80.0816 39.6587C80.3696 39.9947 80.7536 40.1627 81.2336 40.1627L84.6896 40.1627C85.1696 40.1627 85.5536 39.9947 85.8416 39.6587C86.1296 39.3707 86.2736 38.9867 86.2736 38.5067L86.2736 35.0507ZM111.474 35.0507C111.474 34.5707 111.33 34.1867 111.042 33.8987C110.754 33.6107 110.37 33.4667 109.89 33.4667L106.434 33.4667C105.954 33.4667 105.57 33.6107 105.282 33.8987C104.946 34.1867 104.778 34.5707 104.778 35.0507L104.778 38.5067C104.778 38.9867 104.946 39.3707 105.282 39.6587C105.57 39.9947 105.954 40.1627 106.434 40.1627L109.89 40.1627C110.37 40.1627 110.754 39.9947 111.042 39.6587C111.33 39.3707 111.474 38.9867 111.474 38.5067L111.474 35.0507ZM122.922 48.8899C122.922 48.4579 122.754 48.0739 122.418 47.7379C122.13 47.4499 121.77 47.3059 121.338 47.3059L120.33 47.3059C119.898 47.3059 119.514 47.4499 119.178 47.7379C118.89 48.0259 118.746 48.3379 118.746 48.6739C118.746 50.6899 118.266 52.3939 117.306 53.7859C116.346 55.1779 114.738 56.3059 112.482 57.1699C110.274 58.0339 107.274 58.6579 103.482 59.0419C99.6896 59.4259 94.9376 59.6179 89.2256 59.6179C83.5136 59.6179 78.7616 59.4259 74.9696 59.0419C71.1776 58.6579 68.1776 58.0339 65.9696 57.1699C63.7136 56.3059 62.1296 55.1779 61.2176 53.7859C60.2576 52.3939 59.7776 50.6899 59.7776 48.6739C59.7776 48.3379 59.6336 48.0259 59.3456 47.7379C59.0096 47.4499 58.6256 47.3059 58.1936 47.3059L57.1856 47.3059C56.7536 47.3059 56.3936 47.4499 56.1056 47.7379C55.7696 48.0739 55.6016 48.4579 55.6016 48.8899C55.6016 51.9139 56.2736 54.4099 57.6176 56.3779C58.9136 58.3459 60.9296 59.8579 63.6656 60.9139C66.4016 62.0179 69.9056 62.7859 74.1776 63.2179C78.4016 63.6499 83.4176 63.8659 89.2256 63.8659C95.0336 63.8659 100.074 63.6499 104.346 63.2179C108.57 62.7859 112.05 62.0179 114.786 60.9139C117.522 59.8579 119.562 58.3459 120.906 56.3779C122.25 54.4099 122.922 51.9139 122.922 48.8899Z" fill="white"/>
</svg>
