<svg width="192" height="111" viewBox="0 0 192 111" fill="none" xmlns="http://www.w3.org/2000/svg">
<circle cx="96" cy="95.5" r="95.5" fill="#438EFF"/>
<path d="M96.4549 33.2235C96.4549 32.7435 96.5989 32.3595 96.8869 32.0715C97.1749 31.7835 97.5589 31.6395 98.0389 31.6395L101.495 31.6395C101.975 31.6395 102.359 31.7835 102.647 32.0715C102.983 32.3595 103.151 32.7435 103.151 33.2235L103.151 36.6795C103.151 37.1595 102.983 37.5435 102.647 37.8315C102.359 38.1675 101.975 38.3355 101.495 38.3355L98.0389 38.3355C97.5589 38.3355 97.1749 38.1675 96.8869 37.8315C96.5989 37.5435 96.4549 37.1595 96.4549 36.6795L96.4549 33.2235ZM71.2549 33.2235C71.2549 32.7435 71.3989 32.3595 71.6869 32.0715C71.9749 31.7835 72.3589 31.6395 72.8389 31.6395L76.2949 31.6395C76.7749 31.6395 77.1589 31.7835 77.4469 32.0715C77.7829 32.3595 77.9509 32.7435 77.9509 33.2235L77.9509 36.6795C77.9509 37.1595 77.7829 37.5435 77.4469 37.8315C77.1589 38.1675 76.7749 38.3355 76.2949 38.3355L72.8389 38.3355C72.3589 38.3355 71.9749 38.1675 71.6869 37.8315C71.3989 37.5435 71.2549 37.1595 71.2549 36.6795L71.2549 33.2235ZM59.8069 47.0627C59.8069 46.6307 59.9749 46.2467 60.3109 45.9107C60.5989 45.6227 60.9589 45.4787 61.3909 45.4787L62.3989 45.4787C62.8309 45.4787 63.2149 45.6227 63.5509 45.9107C63.8389 46.1987 63.9829 46.5107 63.9829 46.8467C63.9829 48.8627 64.4629 50.5667 65.4229 51.9587C66.3829 53.3507 67.9909 54.4787 70.2469 55.3427C72.4549 56.2067 75.4549 56.8307 79.2469 57.2147C83.0389 57.5987 87.7909 57.7907 93.5029 57.7907C99.2149 57.7907 103.967 57.5987 107.759 57.2147C111.551 56.8307 114.551 56.2067 116.759 55.3427C119.015 54.4787 120.599 53.3507 121.511 51.9587C122.471 50.5667 122.951 48.8627 122.951 46.8467C122.951 46.5107 123.095 46.1987 123.383 45.9107C123.719 45.6227 124.103 45.4787 124.535 45.4787L125.543 45.4787C125.975 45.4787 126.335 45.6227 126.623 45.9107C126.959 46.2467 127.127 46.6307 127.127 47.0627C127.127 50.0867 126.455 52.5827 125.111 54.5507C123.815 56.5187 121.799 58.0307 119.063 59.0867C116.327 60.1907 112.823 60.9587 108.551 61.3907C104.327 61.8227 99.3109 62.0387 93.5029 62.0387C87.6949 62.0387 82.6549 61.8227 78.3829 61.3907C74.1589 60.9587 70.6789 60.1907 67.9429 59.0867C65.2069 58.0307 63.1669 56.5187 61.8229 54.5507C60.4789 52.5827 59.8069 50.0867 59.8069 47.0627Z" fill="white"/>
</svg>
