<svg width="224" height="122" viewBox="0 0 224 122" fill="none" xmlns="http://www.w3.org/2000/svg">
<circle cx="112" cy="112" r="110.5" fill="#0040DD" stroke="#001342" stroke-width="3"/>
<path d="M83.2 39.912C83.2 39.432 83.344 39.048 83.632 38.76C83.92 38.472 84.304 38.328 84.784 38.328L88.24 38.328C88.72 38.328 89.104 38.472 89.392 38.76C89.728 39.048 89.896 39.432 89.896 39.912L89.896 43.368C89.896 43.848 89.728 44.232 89.392 44.52C89.104 44.856 88.72 45.024 88.24 45.024L84.784 45.024C84.304 45.024 83.92 44.856 83.632 44.52C83.344 44.232 83.2 43.848 83.2 43.368L83.2 39.912ZM58 39.912C58 39.432 58.144 39.048 58.432 38.76C58.72 38.472 59.104 38.328 59.584 38.328L63.04 38.328C63.52 38.328 63.904 38.472 64.192 38.76C64.528 39.048 64.696 39.432 64.696 39.912L64.696 43.368C64.696 43.848 64.528 44.232 64.192 44.52C63.904 44.856 63.52 45.024 63.04 45.024L59.584 45.024C59.104 45.024 58.72 44.856 58.432 44.52C58.144 44.232 58 43.848 58 43.368L58 39.912ZM46.552 53.7512C46.552 53.3192 46.72 52.9352 47.056 52.5992C47.344 52.3112 47.704 52.1672 48.136 52.1672L49.144 52.1672C49.576 52.1672 49.96 52.3112 50.296 52.5992C50.584 52.8872 50.728 53.1992 50.728 53.5352C50.728 55.5512 51.208 57.2552 52.168 58.6472C53.128 60.0392 54.736 61.1672 56.992 62.0312C59.2 62.8952 62.2 63.5192 65.992 63.9032C69.784 64.2872 74.536 64.4792 80.248 64.4792C85.96 64.4792 90.712 64.2872 94.504 63.9032C98.296 63.5192 101.296 62.8952 103.504 62.0312C105.76 61.1672 107.344 60.0392 108.256 58.6472C109.216 57.2552 109.696 55.5512 109.696 53.5352C109.696 53.1992 109.84 52.8872 110.128 52.5992C110.464 52.3112 110.848 52.1672 111.28 52.1672L112.288 52.1672C112.72 52.1672 113.08 52.3112 113.368 52.5992C113.704 52.9352 113.872 53.3192 113.872 53.7512C113.872 56.7752 113.2 59.2712 111.856 61.2392C110.56 63.2072 108.544 64.7192 105.808 65.7752C103.072 66.8792 99.568 67.6472 95.296 68.0792C91.072 68.5112 86.056 68.7272 80.248 68.7272C74.44 68.7272 69.4 68.5112 65.128 68.0792C60.904 67.6472 57.424 66.8792 54.688 65.7752C51.952 64.7192 49.912 63.2072 48.568 61.2392C47.224 59.2712 46.552 56.7752 46.552 53.7512Z" fill="white"/>
</svg>
