<svg width="192" height="96" viewBox="0 0 192 96" fill="none" xmlns="http://www.w3.org/2000/svg">
<circle cx="96" cy="0.5" r="95.5" fill="#438EFF"/>
<path d="M96.4539 36.2811C96.4539 35.8011 96.5979 35.4171 96.8859 35.1291C97.1739 34.8411 97.5579 34.6971 98.0379 34.6971L101.494 34.6971C101.974 34.6971 102.358 34.8411 102.646 35.1291C102.982 35.4171 103.15 35.8011 103.15 36.2811L103.15 39.7371C103.15 40.2171 102.982 40.6011 102.646 40.8891C102.358 41.2251 101.974 41.3931 101.494 41.3931L98.0379 41.3931C97.5579 41.3931 97.1739 41.2251 96.8859 40.8891C96.5979 40.6011 96.4539 40.2171 96.4539 39.7371L96.4539 36.2811ZM71.2539 36.2811C71.2539 35.8011 71.3979 35.4171 71.6859 35.1291C71.9739 34.8411 72.3579 34.6971 72.8379 34.6971L76.2939 34.6971C76.7739 34.6971 77.1579 34.8411 77.4459 35.1291C77.7819 35.4171 77.9499 35.8011 77.9499 36.2811L77.9499 39.7371C77.9499 40.2171 77.7819 40.6011 77.4459 40.8891C77.1579 41.2251 76.7739 41.3931 76.2939 41.3931L72.8379 41.3931C72.3579 41.3931 71.9739 41.2251 71.6859 40.8891C71.3979 40.6011 71.2539 40.2171 71.2539 39.7371L71.2539 36.2811ZM59.8059 50.1203C59.8059 49.6883 59.9739 49.3043 60.3099 48.9683C60.5979 48.6803 60.9579 48.5363 61.3899 48.5363L62.3979 48.5363C62.8299 48.5363 63.2139 48.6803 63.5499 48.9683C63.8379 49.2563 63.9819 49.5683 63.9819 49.9043C63.9819 51.9203 64.4619 53.6243 65.4219 55.0163C66.3819 56.4083 67.9899 57.5363 70.2459 58.4003C72.4539 59.2643 75.4539 59.8883 79.2459 60.2723C83.0379 60.6563 87.7899 60.8483 93.5019 60.8483C99.2139 60.8483 103.966 60.6563 107.758 60.2723C111.55 59.8883 114.55 59.2643 116.758 58.4003C119.014 57.5363 120.598 56.4083 121.51 55.0163C122.47 53.6243 122.95 51.9203 122.95 49.9043C122.95 49.5683 123.094 49.2563 123.382 48.9683C123.718 48.6803 124.102 48.5363 124.534 48.5363L125.542 48.5363C125.974 48.5363 126.334 48.6803 126.622 48.9683C126.958 49.3043 127.126 49.6883 127.126 50.1203C127.126 53.1443 126.454 55.6403 125.11 57.6083C123.814 59.5763 121.798 61.0883 119.062 62.1443C116.326 63.2483 112.822 64.0163 108.55 64.4483C104.326 64.8803 99.3099 65.0963 93.5019 65.0963C87.6939 65.0963 82.6539 64.8803 78.3819 64.4483C74.1579 64.0163 70.6779 63.2483 67.9419 62.1443C65.2059 61.0883 63.1659 59.5763 61.8219 57.6083C60.4779 55.6403 59.8059 53.1443 59.8059 50.1203Z" fill="white"/>
</svg>
